<?xml version="1.0" encoding="UTF-8" standalone="no"?>
<!-- Created with Inkscape (http://www.inkscape.org/) -->

<svg
   width="210mm"
   height="297mm"
   viewBox="0 0 210 297"
   version="1.1"
   id="svg5"
   inkscape:export-filename="C:\Users\win10\Coding\OnGitHub\Games\Chess\Assets\Graphics\settings.png"
   inkscape:export-xdpi="78.153847"
   inkscape:export-ydpi="78.153847"
   inkscape:version="1.1 (c68e22c387, 2021-05-23)"
   sodipodi:docname="settings.svg"
   xmlns:inkscape="http://www.inkscape.org/namespaces/inkscape"
   xmlns:sodipodi="http://sodipodi.sourceforge.net/DTD/sodipodi-0.dtd"
   xmlns="http://www.w3.org/2000/svg"
   xmlns:svg="http://www.w3.org/2000/svg">
  <sodipodi:namedview
     id="namedview7"
     pagecolor="#ffffff"
     bordercolor="#666666"
     borderopacity="1.0"
     inkscape:pageshadow="2"
     inkscape:pageopacity="0.0"
     inkscape:pagecheckerboard="0"
     inkscape:document-units="mm"
     showgrid="false"
     inkscape:zoom="0.74118967"
     inkscape:cx="396.6596"
     inkscape:cy="561.93443"
     inkscape:window-width="1920"
     inkscape:window-height="1017"
     inkscape:window-x="1272"
     inkscape:window-y="-8"
     inkscape:window-maximized="1"
     inkscape:current-layer="layer1">
    <inkscape:grid
       type="xygrid"
       id="grid1617" />
  </sodipodi:namedview>
  <defs
     id="defs2" />
  <g
     inkscape:label="Calque 1"
     inkscape:groupmode="layer"
     id="layer1">
    <path
       id="path1760"
       style="fill:#2b3945;fill-opacity:1;stroke-width:0.999999"
       d="M 415.74805 226.77148 A 188.97638 188.97638 0 0 0 226.77148 415.74805 A 188.97638 188.97638 0 0 0 415.74805 604.72461 A 188.97638 188.97638 0 0 0 604.72461 415.74805 A 188.97638 188.97638 0 0 0 415.74805 226.77148 z M 415.74805 340.1582 A 75.590551 75.590551 0 0 1 417.69336 340.18164 A 75.590551 75.590551 0 0 1 419.63867 340.25781 A 75.590551 75.590551 0 0 1 421.58203 340.38281 A 75.590551 75.590551 0 0 1 423.51953 340.55859 A 75.590551 75.590551 0 0 1 425.45312 340.7832 A 75.590551 75.590551 0 0 1 427.38086 341.05859 A 75.590551 75.590551 0 0 1 429.30078 341.38281 A 75.590551 75.590551 0 0 1 431.21094 341.75586 A 75.590551 75.590551 0 0 1 433.10938 342.17773 A 75.590551 75.590551 0 0 1 434.99805 342.65039 A 75.590551 75.590551 0 0 1 436.875 343.16992 A 75.590551 75.590551 0 0 1 438.73633 343.73828 A 75.590551 75.590551 0 0 1 440.58203 344.35352 A 75.590551 75.590551 0 0 1 442.41211 345.01758 A 75.590551 75.590551 0 0 1 444.22461 345.72656 A 75.590551 75.590551 0 0 1 446.01953 346.48242 A 75.590551 75.590551 0 0 1 447.79102 347.28516 A 75.590551 75.590551 0 0 1 449.54492 348.13281 A 75.590551 75.590551 0 0 1 451.27344 349.02539 A 75.590551 75.590551 0 0 1 452.98047 349.96289 A 75.590551 75.590551 0 0 1 454.66211 350.94336 A 75.590551 75.590551 0 0 1 456.31641 351.9668 A 75.590551 75.590551 0 0 1 457.94531 353.0332 A 75.590551 75.590551 0 0 1 459.54688 354.13867 A 75.590551 75.590551 0 0 1 461.11914 355.28711 A 75.590551 75.590551 0 0 1 462.66016 356.47656 A 75.590551 75.590551 0 0 1 464.16992 357.70312 A 75.590551 75.590551 0 0 1 465.64844 358.96875 A 75.590551 75.590551 0 0 1 467.09375 360.27344 A 75.590551 75.590551 0 0 1 468.50586 361.61328 A 75.590551 75.590551 0 0 1 469.88281 362.99023 A 75.590551 75.590551 0 0 1 471.22266 364.40234 A 75.590551 75.590551 0 0 1 472.52734 365.84766 A 75.590551 75.590551 0 0 1 473.79297 367.32617 A 75.590551 75.590551 0 0 1 475.01953 368.83594 A 75.590551 75.590551 0 0 1 476.20898 370.37695 A 75.590551 75.590551 0 0 1 477.35742 371.94922 A 75.590551 75.590551 0 0 1 478.46289 373.55078 A 75.590551 75.590551 0 0 1 479.5293 375.17969 A 75.590551 75.590551 0 0 1 480.55273 376.83398 A 75.590551 75.590551 0 0 1 481.5332 378.51562 A 75.590551 75.590551 0 0 1 482.4707 380.22266 A 75.590551 75.590551 0 0 1 483.36328 381.95117 A 75.590551 75.590551 0 0 1 484.21094 383.70508 A 75.590551 75.590551 0 0 1 485.01367 385.47656 A 75.590551 75.590551 0 0 1 485.76953 387.27148 A 75.590551 75.590551 0 0 1 486.47852 389.08398 A 75.590551 75.590551 0 0 1 487.14258 390.91406 A 75.590551 75.590551 0 0 1 487.75781 392.75977 A 75.590551 75.590551 0 0 1 488.32617 394.62109 A 75.590551 75.590551 0 0 1 488.8457 396.49805 A 75.590551 75.590551 0 0 1 489.31836 398.38672 A 75.590551 75.590551 0 0 1 489.74023 400.28516 A 75.590551 75.590551 0 0 1 490.11328 402.19531 A 75.590551 75.590551 0 0 1 490.4375 404.11523 A 75.590551 75.590551 0 0 1 490.71289 406.04297 A 75.590551 75.590551 0 0 1 490.9375 407.97656 A 75.590551 75.590551 0 0 1 491.11328 409.91406 A 75.590551 75.590551 0 0 1 491.23828 411.85742 A 75.590551 75.590551 0 0 1 491.31445 413.80078 A 75.590551 75.590551 0 0 1 491.33789 415.74805 A 75.590551 75.590551 0 0 1 491.12695 421.39648 A 75.590551 75.590551 0 0 1 490.49414 427.01367 A 75.590551 75.590551 0 0 1 489.44336 432.56836 A 75.590551 75.590551 0 0 1 487.98047 438.0293 A 75.590551 75.590551 0 0 1 486.11328 443.36523 A 75.590551 75.590551 0 0 1 483.85352 448.54492 A 75.590551 75.590551 0 0 1 481.21094 453.54297 A 75.590551 75.590551 0 0 1 478.20312 458.33008 A 75.590551 75.590551 0 0 1 474.84766 462.87891 A 75.590551 75.590551 0 0 1 471.16016 467.16211 A 75.590551 75.590551 0 0 1 467.16211 471.16016 A 75.590551 75.590551 0 0 1 462.87891 474.84766 A 75.590551 75.590551 0 0 1 458.33008 478.20312 A 75.590551 75.590551 0 0 1 453.54297 481.21094 A 75.590551 75.590551 0 0 1 448.54492 483.85352 A 75.590551 75.590551 0 0 1 443.36523 486.11328 A 75.590551 75.590551 0 0 1 438.0293 487.98047 A 75.590551 75.590551 0 0 1 432.56836 489.44336 A 75.590551 75.590551 0 0 1 427.01367 490.49414 A 75.590551 75.590551 0 0 1 421.39648 491.12695 A 75.590551 75.590551 0 0 1 415.74805 491.33789 A 75.590551 75.590551 0 0 1 410.09961 491.12695 A 75.590551 75.590551 0 0 1 404.48242 490.49414 A 75.590551 75.590551 0 0 1 398.92773 489.44336 A 75.590551 75.590551 0 0 1 393.4668 487.98047 A 75.590551 75.590551 0 0 1 388.13086 486.11328 A 75.590551 75.590551 0 0 1 382.95117 483.85352 A 75.590551 75.590551 0 0 1 377.95312 481.21094 A 75.590551 75.590551 0 0 1 373.16602 478.20312 A 75.590551 75.590551 0 0 1 368.61719 474.84766 A 75.590551 75.590551 0 0 1 364.33398 471.16016 A 75.590551 75.590551 0 0 1 360.33594 467.16211 A 75.590551 75.590551 0 0 1 356.64844 462.87891 A 75.590551 75.590551 0 0 1 353.29297 458.33008 A 75.590551 75.590551 0 0 1 350.28516 453.54297 A 75.590551 75.590551 0 0 1 347.64258 448.54492 A 75.590551 75.590551 0 0 1 345.38281 443.36523 A 75.590551 75.590551 0 0 1 343.51562 438.0293 A 75.590551 75.590551 0 0 1 342.05273 432.56836 A 75.590551 75.590551 0 0 1 341.00195 427.01367 A 75.590551 75.590551 0 0 1 340.36914 421.39648 A 75.590551 75.590551 0 0 1 340.1582 415.74805 A 75.590551 75.590551 0 0 1 340.36914 410.09961 A 75.590551 75.590551 0 0 1 341.00195 404.48242 A 75.590551 75.590551 0 0 1 342.05273 398.92773 A 75.590551 75.590551 0 0 1 343.51562 393.4668 A 75.590551 75.590551 0 0 1 345.38281 388.13086 A 75.590551 75.590551 0 0 1 347.64258 382.95117 A 75.590551 75.590551 0 0 1 350.28516 377.95312 A 75.590551 75.590551 0 0 1 353.29297 373.16602 A 75.590551 75.590551 0 0 1 356.64844 368.61719 A 75.590551 75.590551 0 0 1 360.33594 364.33398 A 75.590551 75.590551 0 0 1 364.33398 360.33594 A 75.590551 75.590551 0 0 1 368.61719 356.64844 A 75.590551 75.590551 0 0 1 373.16602 353.29297 A 75.590551 75.590551 0 0 1 377.95312 350.28516 A 75.590551 75.590551 0 0 1 382.95117 347.64258 A 75.590551 75.590551 0 0 1 388.13086 345.38281 A 75.590551 75.590551 0 0 1 393.4668 343.51562 A 75.590551 75.590551 0 0 1 398.92773 342.05273 A 75.590551 75.590551 0 0 1 404.48242 341.00195 A 75.590551 75.590551 0 0 1 410.09961 340.36914 A 75.590551 75.590551 0 0 1 415.74805 340.1582 z "
       transform="scale(0.26458333)" />
    <rect
       style="fill:#2b3945;stroke-width:0.324047;fill-opacity:1"
       id="rect215"
       width="30"
       height="30"
       x="95"
       y="45" />
    <rect
       style="fill:#2b3945;stroke-width:0.324047;fill-opacity:1"
       id="rect215-4"
       width="30"
       height="30"
       x="140.51146"
       y="-66.265244"
       transform="rotate(45)" />
    <rect
       style="fill:#2b3945;stroke-width:0.324047;fill-opacity:1"
       id="rect215-4-0"
       width="30"
       height="30"
       x="191.77669"
       y="-14.999992"
       transform="rotate(45)" />
    <rect
       style="fill:#2b3945;stroke-width:0.324047;fill-opacity:1"
       id="rect215-4-5"
       width="30"
       height="30"
       x="95"
       y="-175"
       transform="rotate(90)" />
    <rect
       style="fill:#2b3945;stroke-width:0.324047;fill-opacity:1"
       id="rect215-4-5-6"
       width="30"
       height="30"
       x="145"
       y="-124.99999"
       transform="rotate(90)" />
    <rect
       style="fill:#2b3945;stroke-width:0.324047;fill-opacity:1"
       id="rect215-4-57"
       width="30"
       height="30"
       x="140.51144"
       y="36.265236"
       transform="rotate(45)" />
    <rect
       style="fill:#2b3945;stroke-width:0.324047;fill-opacity:1"
       id="rect215-4-1"
       width="30"
       height="30"
       x="89.246208"
       y="-14.999998"
       transform="rotate(45)" />
    <rect
       style="fill:#2b3945;stroke-width:0.324047;fill-opacity:1"
       id="rect215-4-5-67"
       width="30"
       height="30"
       x="95"
       y="-75"
       transform="rotate(90)" />
  </g>
</svg>
